{
    "asset" : {
        "generator" : "Khronos glTF Blender I/O v3.3.32",
        "version" : "2.0"
    },
    "extensionsUsed" : [
        "KHR_materials_specular",
        "KHR_materials_ior"
    ],
    "scene" : 0,
    "scenes" : [
        {
            "name" : "Scene",
            "nodes" : [
                0,
                6,
                7,
                8,
                9,
                10,
                12
            ]
        }
    ],
    "nodes" : [
        {
            "name" : "Laptop",
            "scale" : [
                0.02539999969303608,
                0.02539999969303608,
                0.02539999969303608
            ],
            "translation" : [
                -1.0698572397232056,
                1.4801478385925293,
                -1.2701934576034546
            ]
        },
        {
            "name" : "Wheel",
            "rotation" : [
                0,
                -0.21643954515457153,
                0,
                0.9762960076332092
            ],
            "translation" : [
                -5.341726303100586,
                -29.463274002075195,
                15.291239738464355
            ]
        },
        {
            "name" : "Wheel001",
            "rotation" : [
                0,
                -0.21643954515457153,
                0,
                0.9762960076332092
            ],
            "translation" : [
                14.95098876953125,
                -29.463272094726562,
                -6.543116569519043
            ]
        },
        {
            "name" : "Wheel002",
            "rotation" : [
                0,
                -0.21643954515457153,
                0,
                0.9762960076332092
            ],
            "translation" : [
                12.211158752441406,
                -29.463272094726562,
                10.822396278381348
            ]
        },
        {
            "name" : "Wheel003",
            "rotation" : [
                0,
                -0.21643954515457153,
                0,
                0.9762960076332092
            ],
            "translation" : [
                -2.298647403717041,
                -29.463272094726562,
                -15.205641746520996
            ]
        },
        {
            "name" : "Wheel004",
            "rotation" : [
                0,
                -0.21643954515457153,
                0,
                0.9762960076332092
            ],
            "translation" : [
                -14.95098876953125,
                -29.463272094726562,
                -1.112162709236145
            ]
        },
        {
            "children" : [
                1,
                2,
                3,
                4,
                5
            ],
            "name" : "Chair",
            "scale" : [
                0.02539999969303608,
                0.02539999969303608,
                0.02539999969303608
            ],
            "translation" : [
                -0.08405649662017822,
                1.2645673751831055,
                -0.8713033199310303
            ]
        },
        {
            "name" : "Table",
            "scale" : [
                0.02539999969303608,
                0.02539999969303608,
                0.02539999969303608
            ],
            "translation" : [
                -0.7892690300941467,
                0.9271067976951599,
                -0.9309874176979065
            ]
        },
        {
            "name" : "Plants",
            "scale" : [
                0.02539999969303608,
                0.02539999969303608,
                0.02539999969303608
            ],
            "translation" : [
                -0.6706945300102234,
                1.494024634361267,
                -1.4466218948364258
            ]
        },
        {
            "name" : "Bed",
            "scale" : [
                0.02539999969303608,
                0.02539999969303608,
                0.02539999969303608
            ],
            "translation" : [
                1.7343968152999878,
                1.1864756345748901,
                -0.6901110410690308
            ]
        },
        {
            "name" : "Book_Shelf",
            "scale" : [
                0.02539999969303608,
                0.02539999969303608,
                0.02539999969303608
            ],
            "translation" : [
                0.8114343881607056,
                1.9803345203399658,
                -2.103424072265625
            ]
        },
        {
            "mesh" : 0,
            "name" : "Wall_Front",
            "rotation" : [
                0.5000000596046448,
                -0.5,
                -0.4999999403953552,
                0.5
            ],
            "scale" : [
                2.922797203063965,
                0.8156761527061462,
                3.186420440673828
            ],
            "translation" : [
                3.814697265625e-06,
                56.00337600708008,
                -90.86244201660156
            ]
        },
        {
            "children" : [
                11
            ],
            "name" : "Room",
            "scale" : [
                0.02539999969303608,
                0.02539999969303608,
                0.02539999969303608
            ],
            "translation" : [
                -0.034781403839588165,
                2.717332363128662,
                -0.07963690161705017
            ]
        }
    ],
    "materials" : [
        {
            "doubleSided" : true,
            "extensions" : {
                "KHR_materials_specular" : {
                    "specularColorFactor" : [
                        2.371357614441398,
                        2.371357614441398,
                        2.371357614441398
                    ]
                },
                "KHR_materials_ior" : {
                    "ior" : 1.4500000476837158
                }
            },
            "name" : "Material #64",
            "pbrMetallicRoughness" : {
                "baseColorFactor" : [
                    0.5,
                    0.5,
                    0.5,
                    1
                ],
                "metallicFactor" : 0,
                "roughnessFactor" : 0.5527864098548889
            }
        },
        {
            "doubleSided" : true,
            "extensions" : {
                "KHR_materials_specular" : {
                    "specularColorFactor" : [
                        2.371357614441398,
                        2.371357614441398,
                        2.371357614441398
                    ]
                },
                "KHR_materials_ior" : {
                    "ior" : 1.4500000476837158
                }
            },
            "name" : "Material #65",
            "pbrMetallicRoughness" : {
                "baseColorFactor" : [
                    0.5,
                    0.5,
                    0.5,
                    1
                ],
                "metallicFactor" : 0,
                "roughnessFactor" : 0.5527864098548889
            }
        },
        {
            "doubleSided" : true,
            "extensions" : {
                "KHR_materials_specular" : {
                    "specularColorFactor" : [
                        2.371357614441398,
                        2.371357614441398,
                        2.371357614441398
                    ]
                },
                "KHR_materials_ior" : {
                    "ior" : 1.4500000476837158
                }
            },
            "name" : "Chair_back",
            "pbrMetallicRoughness" : {
                "baseColorFactor" : [
                    0.800000011920929,
                    0.800000011920929,
                    0.800000011920929,
                    1
                ],
                "metallicFactor" : 0,
                "roughnessFactor" : 0.5527864098548889
            }
        },
        {
            "doubleSided" : true,
            "extensions" : {
                "KHR_materials_specular" : {
                    "specularColorFactor" : [
                        2.371357614441398,
                        2.371357614441398,
                        2.371357614441398
                    ]
                },
                "KHR_materials_ior" : {
                    "ior" : 1.4500000476837158
                }
            },
            "name" : "Chair_sit",
            "pbrMetallicRoughness" : {
                "baseColorFactor" : [
                    0.800000011920929,
                    0.800000011920929,
                    0.800000011920929,
                    1
                ],
                "metallicFactor" : 0,
                "roughnessFactor" : 0.5527864098548889
            }
        }
    ],
    "meshes" : [
        {
            "name" : "Mesh.088",
            "primitives" : [
                {
                    "attributes" : {
                        "POSITION" : 0,
                        "NORMAL" : 1,
                        "TANGENT" : 2,
                        "TEXCOORD_0" : 3,
                        "TEXCOORD_1" : 4
                    },
                    "indices" : 5,
                    "material" : 0
                },
                {
                    "attributes" : {
                        "POSITION" : 6,
                        "NORMAL" : 7,
                        "TANGENT" : 8,
                        "TEXCOORD_0" : 9,
                        "TEXCOORD_1" : 10
                    },
                    "indices" : 11,
                    "material" : 1
                },
                {
                    "attributes" : {
                        "POSITION" : 12,
                        "NORMAL" : 13,
                        "TANGENT" : 14,
                        "TEXCOORD_0" : 15,
                        "TEXCOORD_1" : 16
                    },
                    "indices" : 17,
                    "material" : 2
                },
                {
                    "attributes" : {
                        "POSITION" : 18,
                        "NORMAL" : 19,
                        "TANGENT" : 20,
                        "TEXCOORD_0" : 21,
                        "TEXCOORD_1" : 22
                    },
                    "indices" : 23,
                    "material" : 3
                }
            ]
        }
    ],
    "accessors" : [
        {
            "bufferView" : 0,
            "componentType" : 5126,
            "count" : 894,
            "max" : [
                49.21259689331055,
                156.1300048828125,
                49.21259689331055
            ],
            "min" : [
                -49.21259689331055,
                0,
                -49.21259689331055
            ],
            "type" : "VEC3"
        },
        {
            "bufferView" : 1,
            "componentType" : 5126,
            "count" : 894,
            "type" : "VEC3"
        },
        {
            "bufferView" : 2,
            "componentType" : 5126,
            "count" : 894,
            "type" : "VEC4"
        },
        {
            "bufferView" : 3,
            "componentType" : 5126,
            "count" : 894,
            "type" : "VEC2"
        },
        {
            "bufferView" : 4,
            "componentType" : 5126,
            "count" : 894,
            "type" : "VEC2"
        },
        {
            "bufferView" : 5,
            "componentType" : 5123,
            "count" : 1422,
            "type" : "SCALAR"
        },
        {
            "bufferView" : 6,
            "componentType" : 5126,
            "count" : 44,
            "max" : [
                10.469807624816895,
                33.097564697265625,
                -12.765998840332031
            ],
            "min" : [
                5.3108696937561035,
                14.11854362487793,
                -13.73593807220459
            ],
            "type" : "VEC3"
        },
        {
            "bufferView" : 7,
            "componentType" : 5126,
            "count" : 44,
            "type" : "VEC3"
        },
        {
            "bufferView" : 8,
            "componentType" : 5126,
            "count" : 44,
            "type" : "VEC4"
        },
        {
            "bufferView" : 9,
            "componentType" : 5126,
            "count" : 44,
            "type" : "VEC2"
        },
        {
            "bufferView" : 10,
            "componentType" : 5126,
            "count" : 44,
            "type" : "VEC2"
        },
        {
            "bufferView" : 11,
            "componentType" : 5123,
            "count" : 66,
            "type" : "SCALAR"
        },
        {
            "bufferView" : 12,
            "componentType" : 5126,
            "count" : 1077,
            "max" : [
                32.56222152709961,
                138.11175537109375,
                -3.311392307281494
            ],
            "min" : [
                12.528682708740234,
                94.89511108398438,
                -6.133757591247559
            ],
            "type" : "VEC3"
        },
        {
            "bufferView" : 13,
            "componentType" : 5126,
            "count" : 1077,
            "type" : "VEC3"
        },
        {
            "bufferView" : 14,
            "componentType" : 5126,
            "count" : 1077,
            "type" : "VEC4"
        },
        {
            "bufferView" : 15,
            "componentType" : 5126,
            "count" : 1077,
            "type" : "VEC2"
        },
        {
            "bufferView" : 16,
            "componentType" : 5126,
            "count" : 1077,
            "type" : "VEC2"
        },
        {
            "bufferView" : 17,
            "componentType" : 5123,
            "count" : 1620,
            "type" : "SCALAR"
        },
        {
            "bufferView" : 18,
            "componentType" : 5126,
            "count" : 13976,
            "max" : [
                49.50401306152344,
                351.4492492675781,
                46.200103759765625
            ],
            "min" : [
                -52.90423583984375,
                11.018657684326172,
                -47.58074951171875
            ],
            "type" : "VEC3"
        },
        {
            "bufferView" : 19,
            "componentType" : 5126,
            "count" : 13976,
            "type" : "VEC3"
        },
        {
            "bufferView" : 20,
            "componentType" : 5126,
            "count" : 13976,
            "type" : "VEC4"
        },
        {
            "bufferView" : 21,
            "componentType" : 5126,
            "count" : 13976,
            "type" : "VEC2"
        },
        {
            "bufferView" : 22,
            "componentType" : 5126,
            "count" : 13976,
            "type" : "VEC2"
        },
        {
            "bufferView" : 23,
            "componentType" : 5123,
            "count" : 23832,
            "type" : "SCALAR"
        }
    ],
    "bufferViews" : [
        {
            "buffer" : 0,
            "byteLength" : 10728,
            "byteOffset" : 0,
            "target" : 34962
        },
        {
            "buffer" : 0,
            "byteLength" : 10728,
            "byteOffset" : 10728,
            "target" : 34962
        },
        {
            "buffer" : 0,
            "byteLength" : 14304,
            "byteOffset" : 21456,
            "target" : 34962
        },
        {
            "buffer" : 0,
            "byteLength" : 7152,
            "byteOffset" : 35760,
            "target" : 34962
        },
        {
            "buffer" : 0,
            "byteLength" : 7152,
            "byteOffset" : 42912,
            "target" : 34962
        },
        {
            "buffer" : 0,
            "byteLength" : 2844,
            "byteOffset" : 50064,
            "target" : 34963
        },
        {
            "buffer" : 0,
            "byteLength" : 528,
            "byteOffset" : 52908,
            "target" : 34962
        },
        {
            "buffer" : 0,
            "byteLength" : 528,
            "byteOffset" : 53436,
            "target" : 34962
        },
        {
            "buffer" : 0,
            "byteLength" : 704,
            "byteOffset" : 53964,
            "target" : 34962
        },
        {
            "buffer" : 0,
            "byteLength" : 352,
            "byteOffset" : 54668,
            "target" : 34962
        },
        {
            "buffer" : 0,
            "byteLength" : 352,
            "byteOffset" : 55020,
            "target" : 34962
        },
        {
            "buffer" : 0,
            "byteLength" : 132,
            "byteOffset" : 55372,
            "target" : 34963
        },
        {
            "buffer" : 0,
            "byteLength" : 12924,
            "byteOffset" : 55504,
            "target" : 34962
        },
        {
            "buffer" : 0,
            "byteLength" : 12924,
            "byteOffset" : 68428,
            "target" : 34962
        },
        {
            "buffer" : 0,
            "byteLength" : 17232,
            "byteOffset" : 81352,
            "target" : 34962
        },
        {
            "buffer" : 0,
            "byteLength" : 8616,
            "byteOffset" : 98584,
            "target" : 34962
        },
        {
            "buffer" : 0,
            "byteLength" : 8616,
            "byteOffset" : 107200,
            "target" : 34962
        },
        {
            "buffer" : 0,
            "byteLength" : 3240,
            "byteOffset" : 115816,
            "target" : 34963
        },
        {
            "buffer" : 0,
            "byteLength" : 167712,
            "byteOffset" : 119056,
            "target" : 34962
        },
        {
            "buffer" : 0,
            "byteLength" : 167712,
            "byteOffset" : 286768,
            "target" : 34962
        },
        {
            "buffer" : 0,
            "byteLength" : 223616,
            "byteOffset" : 454480,
            "target" : 34962
        },
        {
            "buffer" : 0,
            "byteLength" : 111808,
            "byteOffset" : 678096,
            "target" : 34962
        },
        {
            "buffer" : 0,
            "byteLength" : 111808,
            "byteOffset" : 789904,
            "target" : 34962
        },
        {
            "buffer" : 0,
            "byteLength" : 47664,
            "byteOffset" : 901712,
            "target" : 34963
        }
    ],
    "buffers" : [
        {
            "byteLength" : 949376,
            "uri" : "untitled.bin"
        }
    ]
}
